<?xml version="1.0" encoding="UTF-8"?>
<svg xmlns="http://www.w3.org/2000/svg" viewBox="0 0 24 24" fill="none" stroke="#0a0a0a" stroke-width="1.5" stroke-linecap="round" stroke-linejoin="round">
  <path d="M3 19a9 9 0 0 1 9 0a9 9 0 0 1 9 0"></path>
  <path d="M3 6a9 9 0 0 1 9 0a9 9 0 0 1 9 0"></path>
  <line x1="3" y1="6" x2="3" y2="19"></line>
  <line x1="12" y1="6" x2="12" y2="19"></line>
  <line x1="21" y1="6" x2="21" y2="19"></line>
  <path d="M12 10a5 5 0 0 0-5 5"></path>
  <path d="M12 10a5 5 0 0 1 5 5"></path>
</svg> 